# xmcd CD database file
#
# Track frame offsets:
#	150
#	20155
#	37631
#	53832
#	72824
#	93560
#	116255
#	139160
#	158885
#	190054
#	215515
#	237323
#	272853
#
# Disc length: 3905 seconds
#
# Revision: 2
# Processed by: cddbd v1.4b41PL1 Copyright (c) Steve Scherf et al.
# Submitted via: Feurio! 1.52 - http://www.feurio.com
#
DISCID=b30f3f0d
DTITLE=Söhne Mannheims - Zion
DYEAR=1900
DGENRE=
TTITLE0=Volle Kraft Voraus
TTITLE1=The Power Of The Sound
TTITLE2=Jah Is Changing All
TTITLE3=Komm Heim
TTITLE4=Wir Haben Allen Göttern Abgeschworen
TTITLE5=Sofern Du Mir Nah Bist
TTITLE6=Dein Glück Liegt Mir Am Herzen
TTITLE7=Geh Davon Aus
TTITLE8=Armageddon
TTITLE9=Wir Haben Euch Noch Nichts Getan
TTITLE10=Ihr Wisst Nicht Wo Der Himmel Ist
TTITLE11=Meine Stadt
TTITLE12=Peace Geht Raus
EXTD=
EXTT0=(c) MaKueh Records
EXTT1=(c) MaKueh Records
EXTT2=(c) MaKueh Records
EXTT3=(c) MaKueh Records
EXTT4=(c) MaKueh Records
EXTT5=(c) MaKueh Records
EXTT6=(c) MaKueh Records
EXTT7=(c) MaKueh Records
EXTT8=(c) MaKueh Records
EXTT9=(c) MaKueh Records
EXTT10=(c) MaKueh Records
EXTT11=(c) MaKueh Records
EXTT12=(c) MaKueh Records
PLAYORDER=
